<?xml version="1.0" encoding="us-ascii" standalone="no"?><svg xmlns="http://www.w3.org/2000/svg" xmlns:xlink="http://www.w3.org/1999/xlink" contentStyleType="text/css" height="205px" preserveAspectRatio="none" style="width:286px;height:205px;background:#FFFFFF;" version="1.1" viewBox="0 0 286 205" width="286px" zoomAndPan="magnify"><defs/><g><line style="stroke:#181818;stroke-width:0.5;stroke-dasharray:5.0,5.0;" x1="27" x2="27" y1="39.0679" y2="167.186"/><line style="stroke:#181818;stroke-width:0.5;stroke-dasharray:5.0,5.0;" x1="156.5" x2="156.5" y1="39.0679" y2="167.186"/><rect fill="#E2E2F0" height="33.0679" rx="2.5" ry="2.5" style="stroke:#181818;stroke-width:0.5;" width="44" x="5" y="5"/><text fill="#000000" font-family="sans-serif" font-size="14" lengthAdjust="spacing" textLength="30" x="12" y="26.9659">user</text><rect fill="#E2E2F0" height="33.0679" rx="2.5" ry="2.5" style="stroke:#181818;stroke-width:0.5;" width="44" x="5" y="166.186"/><text fill="#000000" font-family="sans-serif" font-size="14" lengthAdjust="spacing" textLength="30" x="12" y="188.1519">user</text><rect fill="#E2E2F0" height="33.0679" rx="2.5" ry="2.5" style="stroke:#181818;stroke-width:0.5;" width="69" x="122.5" y="5"/><text fill="#000000" font-family="sans-serif" font-size="14" lengthAdjust="spacing" textLength="55" x="129.5" y="26.9659">syst&#232;me</text><rect fill="#E2E2F0" height="33.0679" rx="2.5" ry="2.5" style="stroke:#181818;stroke-width:0.5;" width="69" x="122.5" y="166.186"/><text fill="#000000" font-family="sans-serif" font-size="14" lengthAdjust="spacing" textLength="55" x="129.5" y="188.1519">syst&#232;me</text><polygon fill="#181818" points="145,68.7739,155,72.7739,145,76.7739,149,72.7739" style="stroke:#181818;stroke-width:1.0;"/><line style="stroke:#181818;stroke-width:1.0;" x1="27" x2="151" y1="72.7739" y2="72.7739"/><text fill="#000000" font-family="sans-serif" font-size="13" lengthAdjust="spacing" textLength="106" x="34" y="66.9649">selectionnerTexte</text><line style="stroke:#181818;stroke-width:1.0;" x1="157" x2="199" y1="104.4799" y2="104.4799"/><line style="stroke:#181818;stroke-width:1.0;" x1="199" x2="199" y1="104.4799" y2="117.4799"/><line style="stroke:#181818;stroke-width:1.0;" x1="158" x2="199" y1="117.4799" y2="117.4799"/><polygon fill="#181818" points="168,113.4799,158,117.4799,168,121.4799,164,117.4799" style="stroke:#181818;stroke-width:1.0;"/><text fill="#000000" font-family="sans-serif" font-size="13" lengthAdjust="spacing" textLength="115" x="164" y="98.6709">detecterZoneSelect</text><polygon fill="#181818" points="38,145.186,28,149.186,38,153.186,34,149.186" style="stroke:#181818;stroke-width:1.0;"/><line style="stroke:#181818;stroke-width:1.0;" x1="32" x2="156" y1="149.186" y2="149.186"/><text fill="#000000" font-family="sans-serif" font-size="13" lengthAdjust="spacing" textLength="96" x="44" y="143.377">surlignageTexte</text><!--SRC=[LSmn3eCm44JHdbEueoBkARW4gT9PPkHOijTaTot1ZRW75mi9eg2UDxzzgyxIMpidHrfpUlYIhU1JGHxT55rWbvigODCDHbRHVSleZI31Qon4u2SMHNDjTpT13mT-5SBu_zpWBtp4AgSOo0MSgIy0]--></g></svg>